<?xml version="1.0" encoding="UTF-8"?><svg id="a" xmlns="http://www.w3.org/2000/svg" viewBox="0 0 2620 864"><g id="b"><path d="m1986.89,774.01c137.24,123.99,349.1,119.85,481.36-12.41,132.26-132.26,136.39-344.12,12.41-481.36l-493.76,493.76Z"/><path d="m2620,89.99c-137.24-123.99-349.1-119.85-481.36,12.41-132.26,132.26-136.39,344.12-12.41,481.36l493.76-493.76Z"/></g><g id="c"><path d="m1858.48,114.06c-169.48-156.13-433.51-151.98-597.95,12.46-164.44,164.44-168.59,428.47-12.46,597.95L1858.48,114.06Z"/><path d="m1883.94,139.52l-610.41,610.41c169.48,156.13,433.51,151.98,597.95-12.46s168.59-428.47,12.46-597.95Z"/></g><path d="m756.17,522v341.5c183.94-9.57,331.32-157.34,340.38-341.5h-340.38Z"/><path d="m720.19,522h-342.38c9.1,184.83,157.51,333,342.38,341.6v-341.6Z"/><path d="m.55,522v341.5c183.94-9.57,331.32-157.34,340.38-341.5H.55Z"/><path d="m342.38,486V144.4C157.51,153,9.1,301.17,0,486h342.38Z"/><path d="m378.36,486h340.38c-9.06-184.16-156.44-331.93-340.38-341.5v341.5Z"/><path d="m1098,486V144.4c-184.87,8.6-333.28,156.77-342.38,341.6h342.38Z"/></svg>